<?xml version="1.0" encoding="UTF-8"?>
<svg width="20px" height="20px" viewBox="0 0 20 20" version="1.1" xmlns="http://www.w3.org/2000/svg" xmlns:xlink="http://www.w3.org/1999/xlink">
    <!-- Generator: Sketch 51.3 (57544) - http://www.bohemiancoding.com/sketch -->
    <title>common/icon/setting-active</title>
    <desc>Created with Sketch.</desc>
    <defs></defs>
    <g id="common/icon/setting-active" stroke="none" stroke-width="1" fill="none" fill-rule="evenodd">
        <path d="M9.9997,14.0002 C7.7937,14.0002 5.9997,12.2062 5.9997,10.0002 C5.9997,7.7942 7.7937,6.0002 9.9997,6.0002 C12.2057,6.0002 13.9997,7.7942 13.9997,10.0002 C13.9997,12.2062 12.2057,14.0002 9.9997,14.0002 Z M18.9997,11.7142 L18.9997,8.2862 L16.7607,8.2142 C16.5977,7.6002 16.3547,7.0192 16.0417,6.4832 L17.5757,4.8482 L15.1517,2.4242 L13.5177,3.9582 C12.9807,3.6452 12.3997,3.4022 11.7857,3.2402 L11.7147,1.0002 L8.2857,1.0002 L8.2147,3.2392 C7.6007,3.4022 7.0197,3.6442 6.4827,3.9582 L4.8487,2.4242 L2.4237,4.8482 L3.9577,6.4822 C3.6447,7.0192 3.4017,7.6002 3.2387,8.2142 L0.9997,8.2862 L0.9997,11.7142 L3.2387,11.7852 C3.4017,12.4002 3.6447,12.9812 3.9577,13.5182 L2.4237,15.1512 L4.8487,17.5762 L6.4817,16.0422 C7.0197,16.3562 7.6007,16.5982 8.2147,16.7612 L8.2857,19.0002 L11.7147,19.0002 L11.7857,16.7602 C12.3997,16.5982 12.9807,16.3552 13.5177,16.0422 L15.1517,17.5762 L17.5757,15.1512 L16.0427,13.5172 C16.3547,12.9802 16.5977,12.4002 16.7607,11.7852 L18.9997,11.7142 Z" id="Fill-1" fill="#00E6E6"></path>
    </g>
</svg>