<?xml version="1.0" encoding="UTF-8"?>
<svg width="20px" height="20px" viewBox="0 0 20 20" version="1.1" xmlns="http://www.w3.org/2000/svg" xmlns:xlink="http://www.w3.org/1999/xlink">
    <!-- Generator: Sketch 51.3 (57544) - http://www.bohemiancoding.com/sketch -->
    <title>common/icon/setting</title>
    <desc>Created with Sketch.</desc>
    <defs>
        <polygon id="path-1" points="0 0.0002 17.9997 0.0002 17.9997 18 0 18"></polygon>
    </defs>
    <g id="common/icon/setting" stroke="none" stroke-width="1" fill="none" fill-rule="evenodd">
        <g id="Group-3" transform="translate(1.000000, 1.000000)">
            <mask id="mask-2" fill="white">
                <use xlink:href="#path-1"></use>
            </mask>
            <g id="Clip-2"></g>
            <path d="M8.9997,13.0002 C6.7937,13.0002 4.9997,11.2062 4.9997,9.0002 C4.9997,6.7942 6.7937,5.0002 8.9997,5.0002 C11.2057,5.0002 12.9997,6.7942 12.9997,9.0002 C12.9997,11.2062 11.2057,13.0002 8.9997,13.0002 Z M17.9997,10.7142 L17.9997,7.2862 L15.7607,7.2142 C15.5977,6.6002 15.3547,6.0192 15.0417,5.4832 L16.5757,3.8482 L14.1517,1.4242 L12.5177,2.9582 C11.9807,2.6452 11.3997,2.4022 10.7857,2.2402 L10.7147,0.0002 L7.2857,0.0002 L7.2147,2.2392 C6.6007,2.4022 6.0197,2.6442 5.4827,2.9582 L3.8487,1.4242 L1.4237,3.8482 L2.9577,5.4822 C2.6447,6.0192 2.4017,6.6002 2.2387,7.2142 L-0.0003,7.2862 L-0.0003,10.7142 L2.2387,10.7852 C2.4017,11.4002 2.6447,11.9812 2.9577,12.5182 L1.4237,14.1512 L3.8487,16.5762 L5.4817,15.0422 C6.0197,15.3562 6.6007,15.5982 7.2147,15.7612 L7.2857,18.0002 L10.7147,18.0002 L10.7857,15.7602 C11.3997,15.5982 11.9807,15.3552 12.5177,15.0422 L14.1517,16.5762 L16.5757,14.1512 L15.0427,12.5172 C15.3547,11.9802 15.5977,11.4002 15.7607,10.7852 L17.9997,10.7142 Z" id="Fill-1" fill="#000000" mask="url(#mask-2)"></path>
        </g>
    </g>
</svg>